<svg xmlns="http://www.w3.org/2000/svg" width="1024" height="1024" viewBox="55 40 910 910">
<g>
<path d="M 475.83 814.13 C472.15,817.91 468.99,821.00 468.78,821.00 C468.11,821.00 460.38,812.55 457.35,808.50 C447.51,795.33 439.23,771.78 441.94,764.65 C443.73,759.96 446.16,759.60 463.65,761.45 C495.54,764.83 535.14,764.60 571.90,760.82 L 583.31 759.65 L 585.65 762.38 C588.83,766.08 588.68,770.73 585.05,781.86 C580.69,795.20 574.69,805.80 566.19,815.21 C560.10,821.96 559.85,821.94 552.49,814.14 C531.96,792.38 496.96,792.37 475.83,814.13 ZM 611.17 737.97 C599.36,741.25 587.68,734.59 581.23,720.91 C577.35,712.67 576.00,706.01 576.01,695.20 C576.04,679.63 580.92,665.92 589.03,658.59 C594.40,653.74 598.65,652.00 605.15,652.00 C617.84,652.00 627.52,661.98 632.06,679.74 C635.66,693.82 633.75,711.35 627.31,723.17 C623.92,729.40 616.05,736.61 611.17,737.97 ZM 434.93 736.54 C425.03,741.65 411.92,737.41 404.67,726.74 C399.54,719.18 396.82,710.23 396.26,699.00 C395.28,679.51 401.27,663.68 412.66,655.67 C418.47,651.58 427.94,650.82 434.35,653.93 C447.30,660.19 455.06,678.47 453.67,699.44 C452.52,716.97 445.36,731.15 434.93,736.54 ZM 428.31 693.05 C432.36,695.51 432.98,695.49 437.10,692.71 C444.00,688.07 444.72,676.52 438.51,670.31 C433.04,664.84 426.44,666.66 423.46,674.46 C420.59,681.97 422.57,689.55 428.31,693.05 ZM 608.30 693.07 C612.16,695.45 615.61,694.92 618.71,691.45 C624.06,685.46 623.74,675.58 618.00,669.84 C614.76,666.61 613.36,666.41 608.43,668.46 C604.35,670.17 602.00,674.75 602.00,681.02 C602.00,686.25 604.26,690.57 608.30,693.07 Z" fill="rgb(39,25,14)"/>
<path d="M 542.00 931.02 C530.10,932.52 498.54,933.04 486.00,931.96 C427.49,926.89 369.06,903.17 325.00,866.61 C291.93,839.17 264.94,804.73 247.73,768.03 C229.02,728.13 220.77,691.76 220.63,648.50 C220.52,615.52 224.55,588.41 234.14,557.50 C237.57,546.44 249.80,514.90 255.40,502.62 C264.82,482.00 269.92,464.30 271.98,445.00 C275.81,409.28 281.33,388.09 293.53,362.27 C303.25,341.72 315.08,324.22 330.97,306.90 C340.36,296.68 356.71,282.00 358.71,282.00 C360.41,282.00 360.35,282.75 357.99,291.26 C349.33,322.46 349.44,362.02 358.25,379.45 C360.15,383.22 360.30,383.31 361.70,381.45 C362.50,380.38 364.07,377.70 365.20,375.50 C368.86,368.32 377.08,356.85 393.54,335.99 C423.62,297.87 436.41,279.10 447.92,256.15 C465.43,221.26 472.99,186.68 470.10,154.75 C467.11,121.78 457.64,95.52 437.72,65.00 C432.21,56.55 432.50,55.99 441.16,58.34 C463.81,64.51 497.29,80.07 518.50,94.27 C586.43,139.78 634.20,211.07 651.36,292.57 C657.05,319.58 657.45,324.92 657.48,374.50 C657.50,419.07 657.56,420.61 659.55,423.99 C663.61,430.90 669.43,430.54 677.51,422.90 C685.88,414.99 691.86,402.03 696.16,382.52 C698.52,371.85 699.67,343.31 698.29,329.74 C697.80,324.91 697.78,320.41 698.23,319.74 C699.92,317.23 719.86,341.12 733.41,361.87 C768.20,415.15 792.73,479.78 802.96,545.10 C807.33,572.99 808.49,619.30 805.49,645.65 C798.00,711.48 778.56,763.39 743.32,811.72 C694.91,878.13 622.77,920.87 542.00,931.02 ZM 489.53 912.91 C501.78,914.59 537.84,913.54 551.50,911.11 C574.93,906.95 596.47,899.29 617.50,887.65 C672.85,856.99 711.21,811.43 730.56,753.37 C745.07,709.80 744.47,658.71 728.91,614.36 C724.54,601.90 714.28,581.13 707.22,570.45 C696.91,554.85 686.03,542.14 662.73,518.44 C650.32,505.82 636.79,491.26 632.66,486.08 C623.23,474.26 614.11,458.42 608.96,444.91 C605.10,434.80 598.89,412.11 597.48,403.00 C590.24,356.27 569.44,312.22 541.89,285.31 C530.03,273.72 519.76,265.91 518.30,267.37 C518.01,267.66 518.34,273.33 519.04,279.98 C521.99,308.19 517.45,332.97 504.49,359.44 C489.89,389.24 468.17,415.26 424.00,455.81 C375.28,500.54 352.41,526.20 332.02,559.00 C303.16,605.44 290.35,653.07 293.11,703.63 C295.30,743.73 309.28,783.38 333.22,817.39 C341.24,828.78 343.74,831.77 355.91,844.48 C367.24,856.31 379.88,867.06 390.07,873.50 C390.94,874.05 395.66,877.17 400.57,880.42 C425.46,896.94 457.05,908.48 489.53,912.91 ZM 475.83 814.13 C496.96,792.37 531.96,792.38 552.49,814.14 C557.78,819.74 559.39,821.33 562.15,819.27 C553.65,827.48 543.57,833.56 532.79,836.86 C517.08,841.66 501.53,840.11 485.50,832.14 C479.34,829.07 473.76,825.36 468.79,821.00 C469.00,820.98 472.16,817.90 475.83,814.13 ZM 577.41 799.58 C580.41,794.21 582.92,788.36 585.05,781.86 C582.49,789.68 580.63,794.20 577.41,799.58 ZM 465.67 818.12 C462.90,815.40 460.33,812.46 457.96,809.29 C459.97,811.85 463.24,815.56 465.67,818.12 ZM 442.27 775.02 C441.19,770.28 441.09,766.89 441.94,764.65 C441.12,766.83 441.31,770.54 442.27,775.02 ZM 451.58 799.33 C450.43,797.22 449.35,795.03 448.34,792.77 C449.35,795.00 450.43,797.20 451.58,799.33 Z" fill="rgb(252,109,11)"/>
<path d="M 615.00 889.01 C638.81,875.69 661.84,855.90 677.72,835.00 C697.76,808.64 712.72,771.17 716.10,738.87 C717.52,725.29 716.76,698.29 714.59,685.50 C709.87,657.74 697.54,628.50 680.26,604.16 C667.86,586.70 655.87,573.99 630.50,551.40 C604.42,528.19 591.76,514.42 580.45,496.99 C566.05,474.80 559.09,454.09 551.55,411.00 C548.50,393.52 546.84,386.76 545.49,386.32 C544.93,386.14 542.93,390.83 541.05,396.75 C534.46,417.38 520.89,440.94 505.49,458.50 C491.74,474.17 476.89,487.28 446.00,511.01 C418.68,532.00 405.71,543.12 389.37,559.59 C349.31,599.95 322.63,648.81 314.89,696.00 C312.53,710.36 312.39,733.11 314.56,747.73 C319.01,777.73 332.57,810.31 350.51,834.16 C361.15,848.29 378.74,865.02 395.00,876.73 C392.50,875.08 390.59,873.83 390.07,873.50 C379.88,867.06 367.24,856.31 355.91,844.48 C343.74,831.77 341.24,828.78 333.22,817.39 C309.28,783.38 295.30,743.73 293.11,703.63 C290.35,653.07 303.16,605.44 332.02,559.00 C352.41,526.20 375.28,500.54 424.00,455.81 C468.17,415.26 489.89,389.24 504.49,359.44 C517.45,332.97 521.99,308.19 519.04,279.98 C518.34,273.33 518.01,267.66 518.30,267.37 C519.76,265.91 530.03,273.72 541.89,285.31 C569.44,312.22 590.24,356.27 597.48,403.00 C598.89,412.11 605.10,434.80 608.96,444.91 C614.11,458.42 623.23,474.26 632.66,486.08 C636.79,491.26 650.32,505.82 662.73,518.44 C686.03,542.14 696.91,554.85 707.22,570.45 C714.28,581.13 724.54,601.90 728.91,614.36 C744.47,658.71 745.07,709.80 730.56,753.37 C711.21,811.43 672.85,856.99 617.50,887.65 ZM 551.50 911.11 C547.08,911.90 540.33,912.54 532.79,912.99 C540.33,912.54 547.08,911.90 551.50,911.11 C565.62,908.60 580.98,904.12 594.63,898.66 C580.79,904.34 566.53,908.44 551.50,911.11 ZM 433.40 897.77 C451.05,905.05 470.26,910.28 489.51,912.91 C470.07,910.25 450.96,905.06 433.40,897.77 Z" fill="rgb(252,163,2)"/>
<path d="M 489.53 912.91 L 489.51 912.91 C470.26,910.28 451.06,905.05 433.41,897.77 L 433.40 897.77 C421.63,892.88 410.56,887.05 400.57,880.42 C398.61,879.12 396.67,877.84 395.00,876.73 C378.74,865.02 361.15,848.29 350.51,834.16 C332.57,810.31 319.01,777.73 314.56,747.73 C312.39,733.11 312.53,710.36 314.89,696.00 C322.63,648.81 349.31,599.95 389.37,559.59 C405.71,543.12 418.68,532.00 446.00,511.01 C476.89,487.28 491.74,474.17 505.49,458.50 C520.89,440.94 534.46,417.38 541.05,396.75 C542.93,390.83 544.93,386.14 545.49,386.32 C546.84,386.76 548.50,393.52 551.55,411.00 C559.09,454.09 566.05,474.80 580.45,496.99 C591.76,514.42 604.42,528.19 630.50,551.40 C655.87,573.99 667.86,586.70 680.26,604.16 C697.54,628.50 709.87,657.74 714.59,685.50 C716.76,698.29 717.52,725.29 716.10,738.87 C712.72,771.17 697.76,808.64 677.72,835.00 C661.84,855.90 638.81,875.69 615.00,889.01 C608.28,892.63 601.50,895.84 594.63,898.66 C580.98,904.12 565.62,908.60 551.50,911.11 C547.08,911.90 540.33,912.54 532.79,912.99 C531.62,913.06 530.43,913.12 529.23,913.18 L 529.12 913.19 C514.15,913.94 497.19,913.96 489.53,912.91 ZM 577.41 799.58 C580.63,794.20 582.49,789.68 585.05,781.86 C588.68,770.73 588.83,766.08 585.65,762.38 L 583.31 759.65 L 571.90 760.82 C535.14,764.60 495.54,764.83 463.65,761.45 C446.16,759.60 443.73,759.96 441.94,764.65 C441.09,766.89 441.19,770.28 442.27,775.02 C443.39,780.28 445.56,786.62 448.34,792.77 L 448.34 792.77 C448.39,792.89 448.45,793.01 448.50,793.13 C449.46,795.23 450.49,797.32 451.58,799.33 C453.38,802.67 455.34,805.80 457.35,808.50 C457.54,808.75 457.74,809.02 457.96,809.30 C460.33,812.46 462.90,815.40 465.67,818.12 C467.29,819.81 468.53,821.00 468.78,821.00 L 468.79 821.00 C473.76,825.36 479.34,829.07 485.50,832.14 C501.53,840.11 517.08,841.66 532.79,836.86 C543.57,833.56 553.65,827.48 562.15,819.27 C563.23,818.47 564.48,817.11 566.19,815.21 C570.55,810.38 574.25,805.24 577.41,799.58 ZM 611.17 737.97 C616.05,736.61 623.92,729.40 627.31,723.17 C633.75,711.35 635.66,693.82 632.06,679.74 C627.52,661.98 617.84,652.00 605.15,652.00 C598.65,652.00 594.40,653.74 589.03,658.59 C580.92,665.92 576.04,679.63 576.01,695.20 C576.00,706.01 577.35,712.67 581.23,720.91 C587.68,734.59 599.36,741.25 611.17,737.97 ZM 434.93 736.54 C445.36,731.15 452.52,716.97 453.67,699.44 C455.06,678.47 447.30,660.19 434.35,653.93 C427.94,650.82 418.47,651.58 412.66,655.67 C401.27,663.68 395.28,679.51 396.26,699.00 C396.82,710.23 399.54,719.18 404.67,726.74 C411.92,737.41 425.03,741.65 434.93,736.54 Z" fill="rgb(253,205,3)"/>
<path d="M 428.31 693.05 C422.57,689.55 420.59,681.97 423.46,674.46 C426.44,666.66 433.04,664.84 438.51,670.31 C444.72,676.52 444.00,688.07 437.10,692.71 C432.98,695.49 432.36,695.51 428.31,693.05 ZM 608.30 693.07 C604.26,690.57 602.00,686.25 602.00,681.02 C602.00,674.75 604.35,670.17 608.43,668.46 C613.36,666.41 614.76,666.61 618.00,669.84 C623.74,675.58 624.06,685.46 618.71,691.45 C615.61,694.92 612.16,695.45 608.30,693.07 Z" fill="rgb(253,253,253)"/>
</g>
</svg>